# xmcd
#
# Track frame offsets:
#	182
#	11060
#	24865
#	41357
#	53827
#	67050
#	78810
#	93670
#	111060
#	124312
#	142687
#	153665
#	166012
#	182427
#
# Disc length: 2665 seconds
#
# Revision: 0
# Processed by: cddbd v1.5.2PL0 Copyright (c) Steve Scherf et al.
# Submitted via: EasyCDDAExtractor 16.0.9.1
#
DISCID=a60a670e
DTITLE=Various Artist - N-019 Soul Classics
DYEAR=1992
DGENRE=soul
TTITLE0=Wilson Pickett - Sweet Soul Music
TTITLE1=Eddie Floyd - Knock on Wood
TTITLE2=Nina Simone - My Baby Just Cares for Me
TTITLE3=Aretha Franklin - Chain of Fools
TTITLE4=The Drifters - On Broadway
TTITLE5=Martha Reeves - Dancing in the Street
TTITLE6=Harold Melvin and The Blue Notes - Satisfaction Guaranteed
TTITLE7=James Brown - It's a Man' Man's World
TTITLE8=Sam and Dave - Soul Man
TTITLE9=Brook Benton - Rainy Night in Georgia
TTITLE10=Aretha Franklin - Respect
TTITLE11=Sam Cooke - You Send Me
TTITLE12=Harold Melvin and The Blue Notes - If You Don't Know Me by Now
TTITLE13=Al Wilson - Poor Side of Town
EXTD=
EXTT0=
EXTT1=
EXTT2=
EXTT3=
EXTT4=
EXTT5=
EXTT6=
EXTT7=
EXTT8=
EXTT9=
EXTT10=
EXTT11=
EXTT12=
EXTT13=
PLAYORDER=
